<?xml version="1.0" encoding="UTF-8"?>
<svg id="Layer_1" data-name="Layer 1" xmlns="http://www.w3.org/2000/svg" viewBox="0 0 247.52 295.49">
  <defs>
    <style>
      .cls-1 {
        fill: #c4c2c2;
      }
    </style>
  </defs>
  <path class="cls-1" d="M211.46,277.49v17.96h6.24v-11.96h22.72v11.96h6.24v-17.93l-35.19-.03m5.55-5.81h24c3.33-.61,5.81-3.33,6.51-5.95h-37.02c.69,2.63,3.21,5.34,6.51,5.95m-24.45,23.79c3.15-1.23,4.84-3.36,5.49-5.85h-27.99l.02-23.87-6.28,.02v29.71h28.76m-75.43-23.87h22.16c3.34-.9,6.15-3.25,6.83-5.85h-35.21v17.56h28.82v6.16l-22.6,.02c-3.54,.91-6.55,3.11-8.04,6.01l1.83-.03h35.01v-17.99h-28.8v-5.87m-54.72,.06h23.99c3.34-.61,5.82-3.33,6.51-5.96H55.9c.69,2.63,3.21,5.34,6.51,5.96m0,11.74h23.99c3.34-.61,5.82-3.32,6.51-5.95H55.9c.69,2.63,3.21,5.35,6.51,5.95m0,12.07h23.99c3.34-.61,5.82-3.33,6.51-5.95H55.9c.69,2.63,3.21,5.34,6.51,5.95M0,265.77c.72,2.6,3.16,5.25,6.5,5.91h10.1l.52,.19v23.52h6.31v-23.52l.57-.19h10.11c3.38-.8,5.76-3.32,6.47-5.91v-.06H0v.06"/>
  <g>
    <path class="cls-1" d="M123.77,207l31.51-163.57c30.03,0,39.51,3.04,40.88,15.45,0,0,20.15-6.93,30.31-21.02-39.65-16.96-79.5-17.73-79.5-17.73l-23.25,26.14h.05s-23.25-26.14-23.25-26.14c0,0-39.84,.77-79.49,17.73,10.15,14.08,30.31,21.02,30.31,21.02,1.38-12.41,10.84-15.45,40.67-15.47l31.76,163.59"/>
    <path class="cls-1" d="M123.76,12.59c32.05-.23,68.75,4.58,106.31,19.69,5.02-8.34,6.31-12.03,6.31-12.03C195.32,5.26,156.86,.13,123.75,0,90.64,.13,52.19,5.26,11.14,20.25c0,0,1.83,4.54,6.31,12.03C55,17.17,91.7,12.37,123.75,12.59h0"/>
  </g>
</svg>