<svg width="21" height="24" viewBox="0 0 21 24" fill="none" xmlns="http://www.w3.org/2000/svg">
<path d="M0 3.74997V10.7578C0 11.5547 0.314063 12.3187 0.876563 12.8812L9.12656 21.1312C10.2984 22.3031 12.1969 22.3031 13.3688 21.1312L19.6266 14.8734C20.7984 13.7015 20.7984 11.8031 19.6266 10.6312L11.3766 2.38122C10.8141 1.81872 10.05 1.50465 9.25313 1.50465H2.25C1.00781 1.49997 0 2.50778 0 3.74997ZM5.25 5.24997C5.64783 5.24997 6.02936 5.408 6.31066 5.68931C6.59196 5.97061 6.75 6.35214 6.75 6.74997C6.75 7.14779 6.59196 7.52932 6.31066 7.81063C6.02936 8.09193 5.64783 8.24997 5.25 8.24997C4.85218 8.24997 4.47064 8.09193 4.18934 7.81063C3.90804 7.52932 3.75 7.14779 3.75 6.74997C3.75 6.35214 3.90804 5.97061 4.18934 5.68931C4.47064 5.408 4.85218 5.24997 5.25 5.24997Z" fill="#3A7777"/>
</svg>
