<svg width="31" height="30" viewBox="0 0 31 30" fill="none" xmlns="http://www.w3.org/2000/svg">
<circle cx="15.2428" cy="15" r="14" stroke="#E95C49" stroke-width="2"/>
<path fill-rule="evenodd" clip-rule="evenodd" d="M16.8878 14.6782L20.7353 10.8306C21.0857 10.4802 21.0857 9.91379 20.7353 9.56336C20.3849 9.21293 19.8185 9.21293 19.468 9.56336L15.6205 13.4109L11.7729 9.56336C11.4225 9.21293 10.8561 9.21293 10.5056 9.56336C10.1552 9.91379 10.1552 10.4802 10.5056 10.8306L14.3532 14.6782L10.5056 18.5258C10.1552 18.8762 10.1552 19.4426 10.5056 19.7931C10.6804 19.9678 10.9098 20.0557 11.1393 20.0557C11.3687 20.0557 11.5981 19.9678 11.7729 19.7931L15.6205 15.9455L19.468 19.7931C19.6428 19.9678 19.8722 20.0557 20.1017 20.0557C20.3311 20.0557 20.5606 19.9678 20.7353 19.7931C21.0857 19.4426 21.0857 18.8762 20.7353 18.5258L16.8878 14.6782Z" fill="#E95C49"/>
</svg>
