<svg width="16" height="23" viewBox="0 0 16 23" fill="none" xmlns="http://www.w3.org/2000/svg">
<g clip-path="url(#clip0_91_121)">
<path d="M7.0125 22.425C4.875 19.541 -4.76837e-07 12.5512 -4.76837e-07 8.625C-4.76837e-07 3.86328 3.58333 0 8 0C12.4167 0 16 3.86328 16 8.625C16 12.5512 11.125 19.541 8.9875 22.425C8.475 23.1123 7.525 23.1123 7.0125 22.425ZM8 5.75C7.29276 5.75 6.61448 6.0529 6.11438 6.59207C5.61428 7.13123 5.33333 7.8625 5.33333 8.625C5.33333 9.3875 5.61428 10.1188 6.11438 10.6579C6.61448 11.1971 7.29276 11.5 8 11.5C8.70724 11.5 9.38552 11.1971 9.88562 10.6579C10.3857 10.1188 10.6667 9.3875 10.6667 8.625C10.6667 7.8625 10.3857 7.13123 9.88562 6.59207C9.38552 6.0529 8.70724 5.75 8 5.75Z" fill="#3A7777"/>
</g>
<defs>
<clipPath id="clip0_91_121">
<rect width="16" height="23" fill="white" transform="matrix(-1 0 0 1 16 0)"/>
</clipPath>
</defs>
</svg>
