<svg width="16" height="16" viewBox="0 0 16 16" fill="none" xmlns="http://www.w3.org/2000/svg">
<g clip-path="url(#clip0_63_196)">
<path d="M14.5 2C15.3281 2 16 2.67188 16 3.5C16 3.97187 15.7781 4.41562 15.4 4.7L8.6 9.8C8.24375 10.0656 7.75625 10.0656 7.4 9.8L0.600001 4.7C0.221875 4.41563 1.72387e-07 3.97188 1.31134e-07 3.5C5.87372e-08 2.67188 0.671875 2 1.5 2L14.5 2ZM16 5.5L16 12C16 13.1031 15.1031 14 14 14L2 14C0.896876 14 9.70666e-07 13.1031 8.74228e-07 12L3.0598e-07 5.5L6.8 10.6C7.5125 11.1344 8.4875 11.1344 9.2 10.6L16 5.5Z" fill="#C4C2C2"/>
</g>
<defs>
<clipPath id="clip0_63_196">
<rect width="16" height="16" fill="white" transform="matrix(-1 8.74228e-08 8.74228e-08 1 16 0)"/>
</clipPath>
</defs>
</svg>
