<svg width="21" height="22" viewBox="0 0 21 22" fill="none" xmlns="http://www.w3.org/2000/svg">
<path d="M0 2.74997V9.75778C0 10.5547 0.314063 11.3187 0.876563 11.8812L9.12656 20.1312C10.2984 21.3031 12.1969 21.3031 13.3688 20.1312L19.6266 13.8734C20.7984 12.7015 20.7984 10.8031 19.6266 9.63122L11.3766 1.38122C10.8141 0.818717 10.05 0.504655 9.25313 0.504655H2.25C1.00781 0.499967 0 1.50778 0 2.74997ZM5.25 4.24997C5.64783 4.24997 6.02936 4.408 6.31066 4.68931C6.59196 4.97061 6.75 5.35214 6.75 5.74997C6.75 6.14779 6.59196 6.52932 6.31066 6.81063C6.02936 7.09193 5.64783 7.24997 5.25 7.24997C4.85218 7.24997 4.47064 7.09193 4.18934 6.81063C3.90804 6.52932 3.75 6.14779 3.75 5.74997C3.75 5.35214 3.90804 4.97061 4.18934 4.68931C4.47064 4.408 4.85218 4.24997 5.25 4.24997Z" fill="#3A7777"/>
</svg>
